<?xml version="1.0" encoding="UTF-8" standalone="no"?>
<!-- Created with Inkscape (http://www.inkscape.org/) -->

<svg
   width="512"
   height="512"
   viewBox="0 0 512 512"
   version="1.1"
   id="svg5"
   xml:space="preserve"
   inkscape:version="1.2.1 (9c6d41e410, 2022-07-14)"
   sodipodi:docname="icon.svg"
   inkscape:export-filename="..\..\Users\James\Desktop\icon.svg"
   inkscape:export-xdpi="96"
   inkscape:export-ydpi="96"
   xmlns:inkscape="http://www.inkscape.org/namespaces/inkscape"
   xmlns:sodipodi="http://sodipodi.sourceforge.net/DTD/sodipodi-0.dtd"
   xmlns="http://www.w3.org/2000/svg"
   xmlns:svg="http://www.w3.org/2000/svg"><sodipodi:namedview
     id="namedview7"
     pagecolor="#ffffff"
     bordercolor="#000000"
     borderopacity="0.25"
     inkscape:showpageshadow="2"
     inkscape:pageopacity="0"
     inkscape:pagecheckerboard="0"
     inkscape:deskcolor="#d1d1d1"
     inkscape:document-units="px"
     showgrid="false"
     inkscape:zoom="1.1697645"
     inkscape:cx="208.58899"
     inkscape:cy="241.07416"
     inkscape:window-width="1920"
     inkscape:window-height="1027"
     inkscape:window-x="-8"
     inkscape:window-y="-1"
     inkscape:window-maximized="1"
     inkscape:current-layer="layer1" /><defs
     id="defs2" /><g
     inkscape:label="Layer 1"
     inkscape:groupmode="layer"
     id="layer1"><circle
       style="fill:#000000;fill-opacity:1;fill-rule:nonzero;stroke:none;stroke-width:0;stroke-linejoin:round;stroke-dasharray:none;stroke-opacity:1"
       id="Border"
       cx="255.99121"
       cy="257.08603"
       r="256.00879" /><circle
       style="fill:#000000;fill-opacity:1;fill-rule:nonzero;stroke:#ffffff;stroke-width:10;stroke-linejoin:round;stroke-dasharray:none;stroke-opacity:1"
       id="Background"
       cx="255.99121"
       cy="257.08603"
       r="240.95499" /><path
       id="Ovals"
       style="display:inline;fill:#000000;fill-opacity:1;stroke:#ffffff;stroke-width:15;stroke-linejoin:round;stroke-dasharray:none;stroke-opacity:1"
       d="M 256.0008,39.702679 A 161.19046,161.19046 0 0 0 94.809209,200.89159 161.19046,161.19046 0 0 0 104.80628,255.60294 161.19046,161.19046 0 0 0 94.809209,310.309 161.19046,161.19046 0 0 0 256.0008,471.49791 161.19046,161.19046 0 0 0 417.18971,310.309 161.19046,161.19046 0 0 0 407.61262,255.59765 161.19046,161.19046 0 0 0 417.18971,200.89159 161.19046,161.19046 0 0 0 256.0008,39.702679 Z" /><path
       style="display:inline;fill:#000000;fill-opacity:1;stroke:#fdfeff;stroke-width:15;stroke-linejoin:round;stroke-dasharray:none;stroke-opacity:1"
       d="m 413.55405,184.44915 c -160.79973,-92.961632 -316.213546,3.23926 -316.213546,3.23926 0,0 -1.066158,175.1924 161.654526,282.53553 0,0 155.57475,-99.86835 154.55902,-285.77479 z"
       id="Triangle"
       sodipodi:nodetypes="cccc" /><ellipse
       style="display:none;fill:#000000;fill-opacity:1;fill-rule:nonzero;stroke:#ffffff;stroke-width:10;stroke-linejoin:round;stroke-dasharray:none;stroke-opacity:1"
       id="Outermost"
       cx="256.0011"
       cy="282.98846"
       rx="119.83743"
       ry="119.39463" /><ellipse
       style="display:inline;fill:#000000;fill-opacity:1;fill-rule:nonzero;stroke:#ffffff;stroke-width:15;stroke-linejoin:round;stroke-dasharray:none;stroke-opacity:1"
       id="Middle"
       cx="256.00101"
       cy="282.987"
       rx="79.985825"
       ry="79.690292" /><circle
       style="display:inline;fill:#000000;fill-opacity:1;fill-rule:nonzero;stroke:#ffffff;stroke-width:15;stroke-linejoin:round;stroke-dasharray:none;stroke-opacity:1"
       id="Innermost"
       cx="255.9989"
       cy="257.10068"
       r="51.77264" /></g></svg>
